<svg width="413" height="158" viewBox="879 0 413 158" fill="none" xmlns="http://www.w3.org/2000/svg">
<path d="M1291.32 0.485005C1243.81 4.35808 1057.1 27.5063 927.63 157.658H879.586L884.954 152.308C912.047 126.134 1031.93 15.2025 1291.32 0.34082V0.485005Z" fill="white"/>
<path d="M1128.71 157.658H1091.06L1016.87 103.651C1023.7 99.3515 1030.58 95.2564 1037.49 91.3564L1128.71 157.658Z" fill="white"/>
<path d="M1068.53 157.659H1030.9L1019.48 149.354H955.729C960.217 145.369 964.761 141.5 969.352 137.745H1003.5L985.828 124.891C992.144 120.191 998.53 115.689 1004.97 111.377L1068.53 157.659Z" fill="white"/>
<path d="M931.537 58.0739L960.562 79.1672C953.338 83.4208 946.577 87.6309 940.267 91.7495L893.931 58.0558L931.537 58.0739Z" fill="white"/>
</svg>
